<?xml version="1.0" encoding="UTF-8" standalone="no"?>

<svg
   width="1000px"
   height="700px"
   viewBox="0 0 1000 700"
   version="1.1"
   id="SVGRoot"
   sodipodi:docname="brasil-fields.svg"
   inkscape:version="1.1.1 (3bf5ae0d25, 2021-09-20)"
   inkscape:export-filename="/home/rubens/brasil-fields.png"
   inkscape:export-xdpi="96"
   inkscape:export-ydpi="96"
   xmlns:inkscape="http://www.inkscape.org/namespaces/inkscape"
   xmlns:sodipodi="http://sodipodi.sourceforge.net/DTD/sodipodi-0.dtd"
   xmlns="http://www.w3.org/2000/svg"
   xmlns:svg="http://www.w3.org/2000/svg">
  <sodipodi:namedview
     id="namedview3441"
     pagecolor="#ffffff"
     bordercolor="#666666"
     borderopacity="1.0"
     inkscape:pageshadow="2"
     inkscape:pageopacity="0.0"
     inkscape:pagecheckerboard="0"
     inkscape:document-units="px"
     showgrid="false"
     inkscape:zoom="128"
     inkscape:cx="362.58984"
     inkscape:cy="312.95703"
     inkscape:window-width="1920"
     inkscape:window-height="1016"
     inkscape:window-x="0"
     inkscape:window-y="27"
     inkscape:window-maximized="1"
     inkscape:current-layer="layer1"
     showguides="false" />
  <defs
     id="defs3436" />
  <g
     inkscape:label="Layer 1"
     inkscape:groupmode="layer"
     id="layer1">
    <rect
       style="fill:#02569b;fill-opacity:1;stroke-width:5.58911"
       id="rect3570"
       width="1000"
       height="700"
       x="0"
       y="0"
       rx="137.58643"
       ry="142.11577" />
    <rect
       style="fill:#ffc108;fill-opacity:1"
       id="rect5674"
       x="-278.89447"
       y="178.15384"
       rx="500"
       ry="500" />
    <rect
       style="fill:#ffc108;fill-opacity:1;stroke-width:1.96176"
       id="rect6083"
       width="509.6481"
       height="509.6481"
       x="-234.41493"
       y="-873.01276"
       rx="0"
       ry="0"
       transform="matrix(-0.83642867,0.54807579,-0.83642867,-0.54807579,0,0)" />
    <circle
       style="fill:#002776;fill-opacity:1;stroke-width:4.80259"
       id="path6275"
       cx="500"
       cy="350"
       r="140" />
    <path
       style="fill:#000000;fill-opacity:0"
       id="path29515"
       d="m 371.91385,-189.46426 c 48.52767,4.84005 96.93564,11.45006 145.04352,19.45442 18.85047,3.13641 37.62717,6.70115 56.44075,10.05172 87.5183,16.67824 174.60889,35.63807 261.20627,56.57218 28.48129,7.072416 15.22686,3.660926 39.78518,10.149066 0,0 10.90345,-7.520336 10.90345,-7.520336 v 0 c -25.27427,-5.98467 -11.66092,-2.82081 -40.85301,-9.43561 -35.45383,-7.99138 -70.97014,-15.60813 -106.53451,-23.09395 -52.27186,-11.00252 -104.52573,-22.12146 -157.04725,-31.88858 -18.64426,-3.47715 -37.26115,-7.10444 -55.93279,-10.43144 -46.79493,-8.33813 -93.82658,-15.32672 -140.80762,-22.50648 0,0 -12.20399,8.64901 -12.20399,8.64901 z" />
    <path
       style="fill:#000000;fill-opacity:0"
       id="path29517"
       d="m 426.53884,314.15727 c 25.47894,8.42875 51.037,16.62922 76.28666,25.73313 15.86719,5.721 21.87914,8.1499 37.11411,14.06041 4.56041,1.85951 9.12082,3.71902 13.68122,5.57853 0,0 11.25497,-7.54558 11.25497,-7.54558 v 0 c -4.66633,-1.79592 -9.33266,-3.59185 -13.999,-5.38777 -14.64436,-5.45053 -22.4822,-8.41459 -37.54317,-13.80988 -24.9528,-8.93884 -50.16326,-17.1619 -74.91174,-26.66569 0,0 -11.88305,8.03685 -11.88305,8.03685 z" />
    <rect
       style="fill:#0000cc;fill-opacity:0"
       id="rect29936"
       width="631.1001"
       height="72.458862"
       x="578.14117"
       y="-220.55217" />
    <rect
       style="fill:#0000cc;fill-opacity:0"
       id="rect30017"
       width="475.0809"
       height="72.594772"
       x="652.25903"
       y="-130.02824" />
    <ellipse
       style="fill:#000080;fill-opacity:0"
       id="path30085"
       cx="727.14191"
       cy="-157.02763"
       rx="207.67265"
       ry="65.312973" />
    <rect
       style="fill:#0000f9;fill-opacity:0"
       id="rect30585"
       width="170.79243"
       height="175.83928"
       x="1293.6219"
       y="252.45152" />
    <rect
       style="fill:none;fill-opacity:0;stroke:none"
       id="rect853"
       width="667.77246"
       height="109.88879"
       x="146.93394"
       y="-249.75768" />
    <path
       style="color:#000000;fill:#13b9fd;-inkscape-stroke:none"
       d="m 382.71748,273.56968 c 0,0 -11.09826,14.5291 -17.84872,39.82668 0,0 171.98006,10.8744 251.23067,114.86565 16.00606,-21.3407 19.08647,-41.86985 19.08647,-41.86985 C 543.45202,283.8363 382.71748,273.56968 382.71748,273.56968 Z"
       id="path26102"
       sodipodi:nodetypes="ccccc" />
    <rect
       style="font-variation-settings:normal;opacity:1;vector-effect:none;fill:#87d6fd;fill-opacity:1;fill-rule:evenodd;stroke-width:5.93974;stroke-linecap:butt;stroke-linejoin:miter;stroke-miterlimit:4;stroke-dasharray:none;stroke-dashoffset:0;stroke-opacity:1;-inkscape-stroke:none;stop-color:#000000;stop-opacity:1"
       id="rect14885"
       width="20"
       height="20"
       x="527.17792"
       y="400.10178" />
    <rect
       style="font-variation-settings:normal;vector-effect:none;fill:#87acfd;fill-opacity:1;fill-rule:evenodd;stroke-width:5.93974;stroke-linecap:butt;stroke-linejoin:miter;stroke-miterlimit:4;stroke-dasharray:none;stroke-dashoffset:0;stroke-opacity:1;-inkscape-stroke:none;stop-color:#000000"
       id="rect14885-3"
       width="20"
       height="20"
       x="508.63361"
       y="450.53571" />
    <rect
       style="font-variation-settings:normal;vector-effect:none;fill:#f6fcfe;fill-opacity:1;fill-rule:evenodd;stroke-width:5.93974;stroke-linecap:butt;stroke-linejoin:miter;stroke-miterlimit:4;stroke-dasharray:none;stroke-dashoffset:0;stroke-opacity:1;-inkscape-stroke:none;stop-color:#000000"
       id="rect14885-3-5"
       width="20"
       height="20"
       x="386.30872"
       y="348.24582" />
    <rect
       style="font-variation-settings:normal;vector-effect:none;fill:#87fdf1;fill-opacity:1;fill-rule:evenodd;stroke-width:5.93974;stroke-linecap:butt;stroke-linejoin:miter;stroke-miterlimit:4;stroke-dasharray:none;stroke-dashoffset:0;stroke-opacity:1;-inkscape-stroke:none;stop-color:#000000"
       id="rect14885-3-5-6"
       width="20"
       height="20"
       x="419.45905"
       y="392.95187" />
    <rect
       style="font-variation-settings:normal;vector-effect:none;fill:#16a9fd;fill-opacity:1;fill-rule:evenodd;stroke-width:5.93974;stroke-linecap:butt;stroke-linejoin:miter;stroke-miterlimit:4;stroke-dasharray:none;stroke-dashoffset:0;stroke-opacity:1;-inkscape-stroke:none;stop-color:#000000"
       id="rect14885-3-5-6-2"
       width="20"
       height="20"
       x="435.22104"
       y="349.72394"
       inkscape:transform-center-x="5.2775353"
       inkscape:transform-center-y="63.493605" />
    <rect
       style="font-variation-settings:normal;vector-effect:none;fill:#87d6fd;fill-opacity:1;fill-rule:evenodd;stroke-width:5.93974;stroke-linecap:butt;stroke-linejoin:miter;stroke-miterlimit:4;stroke-dasharray:none;stroke-dashoffset:0;stroke-opacity:1;-inkscape-stroke:none;stop-color:#000000"
       id="rect14885-3-5-6-2-9"
       width="20"
       height="20"
       x="480.978"
       y="368.20831"
       inkscape:transform-center-x="5.2775353"
       inkscape:transform-center-y="63.493605" />
    <rect
       style="font-variation-settings:normal;vector-effect:none;fill:#87fdc4;fill-opacity:1;fill-rule:evenodd;stroke-width:5.93974;stroke-linecap:butt;stroke-linejoin:miter;stroke-miterlimit:4;stroke-dasharray:none;stroke-dashoffset:0;stroke-opacity:1;-inkscape-stroke:none;stop-color:#000000"
       id="rect14885-7"
       width="20"
       height="20"
       x="571.13501"
       y="305.37723" />
    <rect
       style="font-variation-settings:normal;vector-effect:none;fill:#87d6fd;fill-opacity:1;fill-rule:evenodd;stroke-width:5.93974;stroke-linecap:butt;stroke-linejoin:miter;stroke-miterlimit:4;stroke-dasharray:none;stroke-dashoffset:0;stroke-opacity:1;-inkscape-stroke:none;stop-color:#000000"
       id="rect14885-7-5"
       width="20"
       height="20"
       x="561.59961"
       y="428.38895" />
  </g>
</svg>
